<svg id="Layer_1" height="512" viewBox="0 0 128 128" width="512" xmlns="http://www.w3.org/2000/svg" data-name="Layer 1"><path d="m84.147 114.779h-40.294a5.177 5.177 0 0 1 -5.161-4.768l-5.32-67.159h61.256l-5.321 67.158a5.177 5.177 0 0 1 -5.16 4.769z" fill="#e5ffff"/><path d="m84.055 13.221h-40.11a4.093 4.093 0 0 0 -3.945 3.007l-4.871 17.7h57.742l-4.871-17.7a4.093 4.093 0 0 0 -3.945-3.007z" fill="#e5ffff"/><path d="m84.055 13.221h-20.055v20.7h28.871l-4.871-17.693a4.093 4.093 0 0 0 -3.945-3.007z" fill="#d8f1ff"/><path d="m64 114.779h20.147a5.177 5.177 0 0 0 5.161-4.768l5.321-67.158h-30.629z" fill="#d8f1ff"/><path d="m29.665 33.925h68.67v8.927h-68.67z" fill="#596c76"/><path d="m74.637 25.758h-21.274l-1.139-12.537h23.552z" fill="#596c76"/><path d="m52.75 54.5a5.375 5.375 0 0 1 5.375 5.375v54.9a0 0 0 0 1 0 0h-10.75a0 0 0 0 1 0 0v-54.9a5.375 5.375 0 0 1 5.375-5.375z" fill="#26bebe"/><path d="m75.25 54.5a5.375 5.375 0 0 1 5.375 5.375v54.9a0 0 0 0 1 0 0h-10.75a0 0 0 0 1 0 0v-54.9a5.375 5.375 0 0 1 5.375-5.375z" fill="#26bebe"/><path d="m64 25.758h10.637l1.139-12.537h-11.776z" fill="#45595f"/><path d="m64 33.925h34.335v8.927h-34.335z" fill="#45595f"/><g fill="#530000"><path d="m98.335 32.175h-4.135l-4.512-16.412a5.859 5.859 0 0 0 -5.634-4.292h-40.109a5.859 5.859 0 0 0 -5.634 4.292l-4.511 16.412h-4.13a1.75 1.75 0 0 0 -1.75 1.75v8.927a1.75 1.75 0 0 0 1.75 1.75h2.091l5.193 65.546a6.96 6.96 0 0 0 6.9 6.38h40.293a6.96 6.96 0 0 0 6.9-6.38l4.78-60.336a1.75 1.75 0 1 0 -3.488-.276l-4.78 60.336a3.444 3.444 0 0 1 -3.416 3.156h-1.768v-53.153a7.125 7.125 0 0 0 -14.25 0v40.063a1.75 1.75 0 1 0 3.5 0v-40.063a3.625 3.625 0 0 1 7.25 0v53.154h-19v-53.154a7.125 7.125 0 0 0 -14.25 0v46.875a1.75 1.75 0 0 0 3.5 0v-46.875a3.625 3.625 0 0 1 7.25 0v53.154h-12.522a3.444 3.444 0 0 1 -3.416-3.156l-5.171-65.273h63.069a1.75 1.75 0 0 0 1.75-1.75v-8.925a1.75 1.75 0 0 0 -1.75-1.75zm-1.75 8.925h-65.17v-5.425h10.585a1.75 1.75 0 0 0 0-3.5h-4.574l4.261-15.482a2.35 2.35 0 0 1 2.259-1.722h29.914l-.821 9.037h-18.078l-.425-4.677a1.75 1.75 0 0 0 -3.486.317l.57 6.269a1.75 1.75 0 0 0 1.743 1.591h21.274a1.75 1.75 0 0 0 1.743-1.592l.995-10.945h6.68a2.35 2.35 0 0 1 2.259 1.721l4.261 15.483h-35.825a1.75 1.75 0 0 0 0 3.5h41.835z"/><path d="m48.708 32.175h-.458a1.75 1.75 0 0 0 0 3.5h.458a1.75 1.75 0 0 0 0-3.5z"/><path d="m69.875 108.5a1.75 1.75 0 0 0 1.75-1.75v-.75a1.75 1.75 0 0 0 -3.5 0v.75a1.75 1.75 0 0 0 1.75 1.75z"/></g></svg>